<svg width="30" height="30" viewBox="0 0 30 30" fill="none" xmlns="http://www.w3.org/2000/svg">
<g clip-path="url(#clip0_53_613)">
<path d="M15.0051 7.29736C10.7514 7.29736 7.30762 10.7449 7.30762 14.9949C7.30762 19.2486 10.7551 22.6924 15.0051 22.6924C19.2589 22.6924 22.7026 19.2449 22.7026 14.9949C22.7026 10.7411 19.2551 7.29736 15.0051 7.29736V7.29736ZM15.0051 19.9911C12.2439 19.9911 10.0089 17.7549 10.0089 14.9949C10.0089 12.2349 12.2451 9.99861 15.0051 9.99861C17.7651 9.99861 20.0014 12.2349 20.0014 14.9949C20.0026 17.7549 17.7664 19.9911 15.0051 19.9911V19.9911Z" fill="#2F3035"/>
<path d="M21.1853 0.0956982C18.4253 -0.0330518 11.589 -0.0268018 8.82653 0.0956982C6.39903 0.209448 4.25778 0.795698 2.53153 2.52195C-0.353466 5.40695 0.0152841 9.29445 0.0152841 14.9957C0.0152841 20.8307 -0.309716 24.6282 2.53153 27.4695C5.42778 30.3645 9.37153 29.9857 15.0053 29.9857C20.7853 29.9857 22.7803 29.9894 24.824 29.1982C27.6028 28.1194 29.7003 25.6357 29.9053 21.1744C30.0353 18.4132 30.0278 11.5782 29.9053 8.8157C29.6578 3.54945 26.8315 0.355698 21.1853 0.0956982V0.0956982ZM25.554 25.5607C23.6628 27.4519 21.039 27.2832 14.969 27.2832C8.71903 27.2832 6.21278 27.3757 4.38403 25.542C2.27778 23.4457 2.65903 20.0794 2.65903 14.9757C2.65903 8.06945 1.95028 3.0957 8.88153 2.7407C10.474 2.68445 10.9428 2.6657 14.9515 2.6657L15.0078 2.7032C21.669 2.7032 26.8953 2.0057 27.209 8.9357C27.2803 10.5169 27.2965 10.9919 27.2965 14.9944C27.2953 21.172 27.4128 23.6932 25.554 25.5607V25.5607Z" fill="#2F3035"/>
<path d="M23.0077 8.79232C24.0012 8.79232 24.8065 7.987 24.8065 6.99357C24.8065 6.00015 24.0012 5.19482 23.0077 5.19482C22.0143 5.19482 21.209 6.00015 21.209 6.99357C21.209 7.987 22.0143 8.79232 23.0077 8.79232Z" fill="#2F3035"/>
</g>
<defs>
<clipPath id="clip0_53_613">
<rect width="30" height="30" fill="white"/>
</clipPath>
</defs>
</svg>
